<svg width="1485" height="4904" viewBox="0 0 1485 4904" fill="none" xmlns="http://www.w3.org/2000/svg">
<path d="M775.793 4L404.773 283M33.7534 562L404.773 283M404.773 283L731.907 862.5M731.907 862.5L1055.03 442.728C1057.16 439.958 1059.98 437.795 1063.21 436.455L1480 263.5M731.907 862.5L115.32 927.349C108.506 928.066 102.532 932.221 99.4908 938.361L21.6467 1095.5M731.907 862.5L823.211 1221M823.211 1221L1344.27 1260.99C1352.25 1261.6 1359.82 1257.4 1363.53 1250.31L1480 1027.5M823.211 1221L1216.17 1534M823.211 1221L44 1319.5M1216.17 1534L518.022 1744M1216.17 1534L1480 1492.5M1216.17 1534L1475.48 1850.97C1478.4 1854.55 1480 1859.02 1480 1863.64V2186.39C1480 2193.02 1476.71 2199.23 1471.21 2202.95L1336.74 2294M518.022 1744L684.386 2186C686.941 2192.79 692.971 2197.67 700.144 2198.74L1336.74 2294M518.022 1744L44 1534M518.022 1744L21.6467 2131M1336.74 2294L1255.46 2744.19C1254.24 2750.92 1249.67 2756.57 1243.33 2759.15L667.842 2994M667.842 2994L46.3736 2478.68C45.0282 2477.57 43.8348 2476.28 42.824 2474.85L5 2421.5M667.842 2994L1253.5 3280M667.842 2994L66.8552 3228.71C55.1702 3233.27 50.5223 3247.34 57.1893 3257.97L327 3688M1253.5 3280L1480 3147M1253.5 3280L1165.5 3659.5M1165.5 3659.5L327 3688M1165.5 3659.5L1453.3 3874.55C1465.39 3883.58 1463.49 3902.25 1449.83 3908.67L628.154 4294.58M327 3688L627.113 4293.22C627.368 4293.73 627.722 4294.2 628.154 4294.58V4294.58M327 3688L48.4855 4050.61C45.8017 4054.11 44.3468 4058.39 44.3468 4062.79V4645.99C44.3468 4653.9 49.0067 4661.07 56.2353 4664.27L580.139 4896.73C584.862 4898.83 590.213 4899.02 595.071 4897.25L1103 4713M1103 4713L628.154 4294.58M1103 4713L1474.76 4527.56M628.154 4294.58L1474.76 4527.56M1480 4529L1474.76 4527.56" stroke="#D9D9D9" stroke-opacity="0.4" stroke-width="10"/>
</svg>
