<svg width="719" height="775" viewBox="0 0 719 775" fill="none" xmlns="http://www.w3.org/2000/svg">
<g clip-path="url(#clip0_138_1143)">
<path d="M797.71 296.734C788.475 312.056 779.767 327.68 770.367 342.794C764.542 352.211 759.046 362.045 751.176 369.607C735.602 384.938 717.786 398.528 702.542 414.276C693.581 423.376 682.118 427.851 669.401 431.835C666.693 432.787 665.366 436.583 664.043 438.558C656.783 436.672 649.028 434.161 640.975 432.732C622.856 429.516 603.308 411.354 599.076 394.687C595.499 380.675 589.349 366.325 586.334 352.293C584.564 344.215 586.888 336.206 587.528 328.257C588.741 313.005 589.227 297.563 591.331 282.708C591.733 278.837 595.735 274.412 599.401 273.211C648.88 258.075 671.453 222.038 681.759 176.687C684.851 163.082 679.591 149.129 666.437 137.597C651.239 124.209 629.588 120.903 618.473 134.578C602.894 153.551 590.084 174.569 578.692 196.286C570.314 212.328 566.488 231.208 560.55 248.876C530.937 248.637 505.737 234.638 491.227 203.874C455.593 128.869 434.814 54.4109 466.124 -15.4606C466.355 -15.8972 465.532 -16.9393 464.348 -19.8966C459.587 -15.3369 453.508 -12.4442 451.519 -7.66105C444.724 9.28835 435.883 26.2027 433.773 44.7004C428.607 96.1894 441.761 148.959 464.128 200.975C480.969 239.798 509.711 268.131 555.062 274.777C556.409 299.472 556.139 323.582 559.765 347.875C562.475 366.631 567.528 386.162 576.281 404.168C597.835 447.859 642.573 465.773 683.407 447.728C696.688 441.904 708.586 433.236 718.374 423.357C752.3 389.276 776.663 348.57 797.167 305.536C798.326 303.353 798.595 300.773 799.226 298.287C799.128 297.434 798.601 297.131 797.71 296.734ZM646.697 157.145C656.072 178.129 627.766 228.079 602.232 237.014C599.449 222.546 632.757 162.136 646.697 157.145Z" fill="black"/>
<path d="M691.106 237.7C684.112 252.684 676.134 267.552 670.398 282.565C660.367 307.943 657.881 333.497 660.19 358.613C660.431 360.638 660.122 362.834 661.384 364.332C664.578 368.171 668.871 371.668 672.614 375.336C677.754 372.06 683.838 369.54 687.483 365.678C702.494 350.515 716.797 335.151 731.1 319.788C738.78 311.522 747.643 304.569 761.753 304.807C777.199 305.26 785.706 312.069 788.916 321.783C792.167 332.325 793.415 343.278 795.762 353.89C795.962 355.088 796.711 356.116 797.977 359.083C805.525 345.398 811.781 333.794 818.313 322.104C819.296 322.219 820.199 322.148 820.907 322.348C815.992 335.636 812.492 349.325 805.531 362.197C798.687 374.614 803.562 389.691 786.216 398.649C782.104 375.144 778.463 351.282 773.015 327.562C772.099 323.226 764.662 319.655 758.565 317.768C756.795 317.268 748.911 322.867 745.187 326.544C730.097 341.521 715.52 356.97 700.784 372.048C692.358 380.755 683.066 388.892 667.499 387.426C652.561 385.975 647.506 377.043 646.066 367.83C641.868 341.201 646.157 314.037 657.637 286.949C665.136 269.498 672.005 252.033 691.106 237.7Z" fill="#46A2DF"/>
<path d="M717.642 688.805C716.336 693.725 715.386 698.84 713.49 703.569C709.487 714.131 698.68 718.692 686.866 714.167C679.777 711.373 673.016 707.473 666.952 703.262C649.6 691.519 636.176 677.017 625.755 660.369C624.664 658.585 623.227 657.106 621.904 655.426C621.439 655.633 620.974 655.84 620.51 656.047C620.888 657.341 621.153 658.838 621.763 660.029C632.537 682.472 649.093 701.128 672.58 714.78C678.273 718.096 685.585 720.287 692.515 720.984C704.848 722.301 714.673 715.553 716.921 705.118C718.102 699.8 717.872 694.303 718.347 688.895C718.113 688.898 717.877 688.802 717.642 688.805Z" fill="#A60C2F"/>
<path d="M1089.25 805.497C1050.38 739.472 1012.8 675.455 974.991 611.205C973.333 611.418 971.941 611.663 970.284 611.876C972.915 646.786 975.812 681.727 978.872 718.954C976.721 713.96 975.331 710.91 973.941 707.86C958.385 672.636 942.265 637.55 913.814 606.751C909.442 602.108 900.332 596.692 894.3 597.204C888.002 597.684 880.476 603.988 877.457 609.186C873.244 616.712 871.814 625.395 870.417 633.876C865.595 661.508 862.398 689.13 856.516 716.635C853.89 729.293 846.228 741.347 840.951 753.687C839.062 753.666 837.438 753.678 835.549 753.657C832.835 747.154 829.293 740.757 827.143 734.116C820.494 712.109 816.364 689.581 807.196 668.095C797.036 644.432 783.528 621.396 769.124 598.871C757.105 579.927 739.378 572.653 721.878 575.496C704.113 578.308 694.329 590.107 691.235 610.534C689.006 625.711 686.246 640.823 683.222 655.905C682.69 659.135 680.832 662.207 679.007 666.725C630.256 609.81 582.862 554.501 535.469 499.191C534.872 499.531 534.276 499.871 533.679 500.212C570.966 552.868 608.551 605.354 646.268 658.68C647.693 658.233 650.014 657.276 652.566 656.553C653.162 657.86 654.122 658.592 653.791 658.964C647.223 669.296 656.598 676.392 665.178 681.746C683.797 693.451 702.492 686.632 706.911 668.012C709.535 657.001 714.513 646.478 717.369 635.701C719.063 628.698 717.61 621.11 719.801 614.372C721.428 609.419 726.203 605.049 729.685 600.319C732.17 601.647 736.08 602.527 737.14 604.302C748.728 622.577 760.052 640.82 771.376 659.064C772.667 661.072 772.798 663.558 773.493 665.907C782.292 694.555 790.561 723.14 799.923 751.65C802.471 759.162 807.769 766.387 812.869 773.176C824.03 787.487 842.953 789.139 857.078 777.242C874.717 762.061 885.035 743.736 888.361 723.543C892.716 698.737 894.686 673.646 897.717 648.681C898.449 642.591 899.712 636.565 902.367 630.294C949.391 692.767 980.937 758.943 990.075 831.493C994.185 831.162 1001.08 831.989 1005.98 830.106C1010.03 828.532 1014.07 823.663 1013.78 820.539C1012.33 806.363 1008.99 792.166 1007.27 777.957C1003.88 750.987 1001.27 724.111 1000.46 696.215C1026.02 733.051 1051.85 769.919 1078.31 807.892C1078.38 807.488 1082.55 806.754 1089.25 805.497Z" fill="black"/>
</g>
<defs>
<clipPath id="clip0_138_1143">
<rect width="719" height="775" fill="white" transform="matrix(-1 0 0 1 719 0)"/>
</clipPath>
</defs>
</svg>
