<svg width="750" height="663" viewBox="0 0 750 663" fill="none" xmlns="http://www.w3.org/2000/svg">
<g clip-path="url(#clip0_138_1155)">
<path d="M279.349 490.21C176.823 448.338 79.3824 413.136 -15.8581 363.09C3.21894 370.397 21.8407 378.283 40.9132 384.867C55.6194 389.886 70.3143 393.095 85.0159 397.39C102.703 402.45 119.931 407.365 137.62 412.787C140.377 413.661 142.924 417.539 144.768 419.208C149.585 419.469 155.312 418.572 160.826 420.318C186.56 428.831 212.072 438.538 237.347 446.905C252.741 451.962 268.341 453.289 282.83 460.228C293.638 465.278 307.926 476.671 311.416 484.825C316.07 495.696 313.162 507.245 310.011 516.73C299.878 546.231 267.623 558.244 246.43 579.183C222.961 602.653 225.987 609.937 271.049 629.271C322.549 651.366 373.528 663.538 424.016 670.493C437.785 672.324 452.025 676.111 466.031 679.283C466.5 680.877 467.197 682.363 467.897 684.211C463.549 685.545 459.662 687.386 454.848 687.488C386.073 689.56 314.215 675.293 239.265 643.24C202.019 627.105 183.274 599.661 197.115 576.394C208.688 557.107 227.627 542.322 243.344 525.794C254.967 514.476 266.362 503.265 279.349 490.21Z" fill="black"/>
<path d="M152.153 691.837C155.376 688.146 159.012 684.333 161.889 680.453C171.755 667.583 164.653 656.184 161 644.504C160.507 642.765 160.841 640.784 160.697 639.668C134.865 610.702 95.8972 589.623 51.567 572.28C5.43911 554.302 -46.9183 545.383 -105.303 544.594C-102.919 538.975 -101.013 534.219 -97.9466 527.241C-88.0159 538.539 -71.1275 535.208 -56.426 535.7C31.4364 538.466 100.572 561.466 151.454 602.969C171.003 618.993 182.08 637.922 177.304 660.316C174.886 672.318 167.424 683.039 152.153 691.837Z" fill="black"/>
<path d="M87.0177 634.674C88.1991 632.775 89.565 630.795 90.5647 628.828C94.0342 622.286 89.6042 617.417 86.7814 612.216C86.3853 611.438 86.3584 610.501 86.1856 609.992C71.2409 598.074 50.8111 590.579 28.1909 585.129C4.65989 579.49 -20.9747 578.415 -48.7041 581.46C-48.1004 578.715 -47.6424 576.399 -46.8423 572.986C-41.0818 577.643 -33.3937 575.112 -26.384 574.481C15.4931 570.631 50.3919 577.254 78.3749 593.52C89.1335 599.806 96.1509 607.933 95.9832 618.593C95.9605 624.298 93.4284 629.704 87.0177 634.674Z" fill="#A60C2F"/>
<path d="M-43.0834 150.428C-41.0834 149.583 -39.0834 148.737 -36.4645 147.71C-37.1887 155.921 -25.5593 161.664 -11.6372 160.928C-0.999292 160.384 8.09333 158.615 11.6723 151.113C13.1038 148.113 16.748 145.494 20.3228 141.347C27.7144 148.723 33.7269 155.084 40.287 161.413C47.988 168.698 55.689 175.982 63.4617 183.117C70.4975 189.564 77.7712 196.071 84.8786 202.369C97.9523 214.009 113.706 213.897 127.521 203.904C143.455 192.256 146.733 178.134 146.99 163.093C147.07 156.232 147.15 149.371 149.563 142.083C155.624 147.785 162.47 153.514 167.841 159.548C193.529 188.253 214.719 218.022 230.409 249.277C234.113 256.575 240.077 263.596 245.635 272.026C261.205 247.197 188.097 136.051 139.207 107.454C124.87 116.31 117.86 127.658 116.653 140.785C115.927 150.674 116.533 160.559 114.784 170.361C114.015 175.877 109.94 181.073 106.504 188.275C92.6219 176.098 80.8553 165.622 68.8511 155.086C59.8658 147.147 51.1186 139.267 41.9902 131.628C25.3733 117.932 3.24051 119.145 -6.34472 134.217C-15.93 149.288 -19.6898 149.361 -37.0919 135.638C-64.0035 114.517 -90.9869 93.5453 -118.042 72.724C-119.183 71.7691 -121.324 71.2371 -124.608 71.4278C-115.551 79.217 -105.875 86.8243 -97.8182 95.0363C-86.0772 106.681 -75.4077 118.899 -64.0477 130.785C-57.0119 137.233 -50.2139 143.621 -43.0834 150.428Z" fill="black"/>
<path d="M-25.9511 418.732C50.9664 442.948 120.096 467.42 201.188 486.379C187.294 481.72 173.08 477.41 159.814 472.523C149.634 468.737 141.024 464.38 131.472 460.365C120.073 455.502 108.983 450.76 97.27 446.01C95.4201 445.279 91.0554 445.578 88.8801 445.432C86.7419 443.753 85.2431 441.374 81.5434 439.912C63.964 433.2 45.4396 426.948 28.1685 420.358C17.6831 416.332 10.3408 411.047 -1.41209 407.949C-10.0705 405.598 -25.5944 403.986 -34.03 405.296C-45.2775 407.042 -54.107 411.769 -61.0553 415.93C-82.5368 428.994 -80.113 444.601 -89.7988 458.994C-100.769 475.022 -108.268 476.226 -142.879 465.877C-182.434 454.051 -213.203 439.266 -239.266 423.007C-246.317 418.552 -255.247 414.546 -263.551 410.429C-265.115 410.763 -266.677 410.979 -268.553 411.31C-267.979 413.323 -268.027 415.329 -266.203 417.122C-240.682 442.932 -199.81 464.688 -142.333 481.933C-113.592 490.437 -82.4219 488.588 -67.8032 476.146C-55.725 465.795 -50.4639 454.179 -42.4167 443.188C-37.2469 435.347 -32.0801 427.624 -25.9511 418.732Z" fill="#46A2DF"/>
<path d="M86.5252 124.045C84.3289 121.398 82.017 118.75 79.8208 116.103C74.8504 110.211 70.4579 103.977 64.6783 98.5111C61.7885 95.8638 59.3611 92.8749 56.0089 90.4837C52.0788 87.751 48.2643 84.9329 44.4498 82.1148C39.2481 78.3573 34.6245 74.1729 28.8449 70.9278C8.61633 59.7407 -11.4966 48.4683 -32.4187 38.0498C-42.9376 32.7552 -55.0747 29.1684 -66.6338 25.1548C-69.986 24.0446 -74.1474 23.7884 -77.8463 24.0446C-86.7469 24.6424 -90.099 29.7662 -85.9377 36.2564C-85.4754 35.6586 -85.1286 35.3171 -84.8974 34.8047C-82.2388 29.1685 -78.4243 27.4605 -71.3732 30.1932C-60.5076 34.4631 -49.7574 38.9892 -40.0477 44.4546C-12.6525 59.9115 14.0491 75.9662 41.0976 91.6793C57.6272 101.415 72.7698 112.175 86.5252 124.045Z" fill="#5CADE2"/>
</g>
<defs>
<clipPath id="clip0_138_1155">
<rect width="750" height="663" fill="white" transform="matrix(-1 0 0 -1 750 663)"/>
</clipPath>
</defs>
</svg>
