<svg width="1062" height="217" viewBox="0 0 1062 217" fill="none" xmlns="http://www.w3.org/2000/svg">
<path d="M320.301 215.2C304.601 215.2 292.901 211.3 285.201 203.6C277.601 195.9 273.701 183.6 273.701 166.6V88.5C273.701 79.1 274.901 71.3 277.201 65C279.501 58.7 282.801 53.7 287.001 50C291.201 46.3 296.101 43.6 301.801 42.1C307.501 40.5 313.601 39.7 320.301 39.7H355.901V65.6H320.301C316.401 65.6 313.201 65.9 310.701 66.6C308.201 67.3 306.301 68.5 304.901 70.2C303.501 71.9 302.601 74.3 302.201 77.2C301.701 80.2 301.501 83.9 301.501 88.4V166.5C301.501 171.2 301.801 175 302.401 178.1C303.001 181.1 304.101 183.5 305.601 185.1C307.101 186.8 309.201 187.9 311.701 188.6C314.301 189.3 317.601 189.6 321.701 189.6H356.001V215H320.301V215.2Z" fill="#A60C2F"/>
<path d="M416.302 215.2C401.202 215.2 389.802 211.1 382.102 202.9C374.502 194.7 370.602 182.6 370.602 166.6V39.8H398.302V166.6C398.302 171 398.602 174.7 399.202 177.6C399.802 180.6 400.902 182.9 402.502 184.7C404.102 186.5 406.202 187.8 409.002 188.6C411.702 189.4 415.102 189.7 419.202 189.7H445.502V215.1H416.302V215.2Z" fill="#A60C2F"/>
<path d="M502.1 215.2C492.7 215.2 484.7 214.3 478.2 212.6C471.6 210.9 466.2 208.1 462.1 204.2C457.9 200.3 454.9 195.4 452.9 189.2C450.9 183.1 449.9 175.5 449.9 166.6V88.5C449.9 79.1 451 71.3 453.2 65C455.4 58.7 458.6 53.7 463 50C467.3 46.3 472.7 43.6 479.1 42.1C485.5 40.5 493 39.7 501.5 39.7H537V65.1H501.4C497.6 65.1 494.3 65.4 491.3 65.9C488.3 66.4 485.9 67.5 483.8 69.1C481.8 70.7 480.2 73 479.1 76.1C478 79.2 477.5 83.3 477.5 88.5V111.9H537V137.5H477.5V166.5C477.5 171.8 478.1 176 479.2 179C480.3 182 481.9 184.3 484 185.9C486 187.5 488.6 188.5 491.6 189C494.6 189.5 498 189.7 501.8 189.7H537V215.1H502.1V215.2Z" fill="#A60C2F"/>
<path d="M551.301 88.6C551.301 73.6 554.901 61.7 562.001 53C569.101 44.2 580.801 39.8 597.201 39.8H633.301V65.2H599.501C595.601 65.2 592.301 65.5 589.701 66.2C587.101 66.9 585.001 68.1 583.501 69.8C581.901 71.5 580.801 73.9 580.101 76.9C579.401 79.9 579.101 83.7 579.101 88.2V111.8H633.301V137.4H579.001V215H551.301V88.6Z" fill="#A60C2F"/>
<path d="M694.301 215.2C678.601 215.2 666.901 211.3 659.201 203.6C651.601 195.9 647.701 183.6 647.701 166.6V88.5C647.701 79.1 648.901 71.3 651.201 65C653.501 58.7 656.801 53.7 661.001 50C665.201 46.3 670.101 43.6 675.801 42.1C681.501 40.6 687.601 39.7 694.301 39.7H729.901V65.6H694.301C690.401 65.6 687.201 65.9 684.701 66.6C682.201 67.3 680.301 68.5 678.901 70.2C677.501 71.9 676.601 74.3 676.201 77.2C675.701 80.2 675.501 83.9 675.501 88.4V166.5C675.501 171.2 675.801 175 676.401 178.1C677.001 181.1 678.101 183.5 679.601 185.1C681.101 186.8 683.201 187.9 685.701 188.6C688.301 189.3 691.601 189.6 695.701 189.6H730.001V215H694.301V215.2Z" fill="#46A2DF"/>
<path d="M839.502 167.8C839.502 183.8 835.602 195.9 827.902 204.1C820.202 212.3 808.802 216.4 793.602 216.4H786.802C771.402 216.4 759.802 212.2 752.102 203.8C744.402 195.4 740.502 183.4 740.502 167.8V87.2C740.502 71.6 744.302 59.6 752.002 51.2C759.602 42.8 771.202 38.6 786.602 38.6H793.202C808.602 38.6 820.202 42.8 827.902 51.2C835.602 59.6 839.502 71.6 839.502 87.2V167.8ZM811.602 87.2C811.602 82.7 811.202 78.9 810.502 75.9C809.702 72.9 808.502 70.5 806.902 68.8C805.202 67.1 803.102 65.8 800.502 65.2C797.902 64.5 794.702 64.2 791.002 64.2H789.002C785.202 64.2 782.002 64.5 779.502 65.2C776.902 65.9 774.802 67.1 773.102 68.8C771.402 70.5 770.202 72.9 769.502 75.9C768.702 78.9 768.402 82.7 768.402 87.2V167.8C768.402 172.3 768.802 176.1 769.502 179C770.302 182 771.502 184.3 773.102 186.1C774.802 187.9 776.902 189.2 779.502 189.8C782.102 190.5 785.202 190.8 789.002 190.8H791.002C798.402 190.8 803.702 189.2 806.902 186C810.102 182.8 811.702 176.7 811.702 167.6V87.2H811.602Z" fill="#46A2DF"/>
<path d="M957.302 166.6C957.302 174 956.402 180.7 954.702 186.7C953.002 192.7 950.202 197.8 946.502 202C942.802 206.2 938.002 209.5 932.202 211.8C926.402 214.1 919.402 215.2 911.202 215.2H858.602V39.8H911.202C919.202 39.8 926.102 41 932.002 43.4C937.802 45.8 942.602 49.2 946.302 53.5C950.002 57.8 952.802 63 954.602 68.9C956.402 74.9 957.302 81.5 957.302 88.8V166.6ZM929.602 88.8C929.602 80 928.102 73.9 925.202 70.4C922.202 66.9 916.802 65.2 909.002 65.2H886.302V189.8H909.002C913.102 189.8 916.402 189.5 919.102 188.8C921.702 188.1 923.902 186.9 925.502 185.1C927.102 183.3 928.202 180.9 928.802 178C929.402 175 929.702 171.3 929.702 166.8V88.8H929.602Z" fill="#46A2DF"/>
<path d="M1026.9 215.2C1017.5 215.2 1009.5 214.3 1003 212.6C996.401 210.9 991.001 208.1 986.901 204.2C982.701 200.3 979.701 195.4 977.701 189.2C975.701 183.1 974.801 175.5 974.801 166.6V88.5C974.801 79.1 975.901 71.3 978.101 65C980.301 58.7 983.501 53.7 987.901 50C992.201 46.3 997.601 43.6 1004 42.1C1010.4 40.5 1017.9 39.7 1026.4 39.7H1062V65.1H1026.4C1022.6 65.1 1019.3 65.4 1016.3 65.9C1013.4 66.4 1010.9 67.5 1008.8 69.1C1006.8 70.7 1005.2 73 1004.1 76.1C1003 79.2 1002.5 83.3 1002.5 88.5V111.9H1062V137.5H1002.5V166.5C1002.5 171.8 1003.1 176 1004.2 179C1005.3 182 1006.9 184.3 1009 185.9C1011 187.5 1013.6 188.5 1016.6 189C1019.6 189.5 1023 189.7 1026.8 189.7H1062V215.1H1026.9V215.2Z" fill="#46A2DF"/>
<path d="M511.102 0.5H512.002H542.002L515.802 27.4H487.002" fill="#A60C2F"/>
<path d="M148.8 126.2C145 126.2 142.1 125.3 140.2 123.4C138.3 121.5 137.4 118.5 137.4 114.4V95.4C137.4 93.1 137.7 91.2 138.3 89.7C138.9 88.2 139.7 87 140.7 86C141.7 85.1 142.9 84.5 144.3 84.1C145.7 83.7 147.2 83.5 148.8 83.5H157.5V89.8H148.8C147.8 89.8 147.1 89.9 146.4 90C145.8 90.2 145.3 90.5 145 90.9C144.7 91.3 144.4 91.9 144.3 92.6C144.2 93.3 144.1 94.2 144.1 95.3V114.3C144.1 115.4 144.2 116.4 144.3 117.1C144.4 117.8 144.7 118.4 145.1 118.8C145.5 119.2 146 119.5 146.6 119.7C147.2 119.9 148 119.9 149 119.9H157.4V126.1H148.8V126.2Z" fill="#179FDB"/>
<path d="M130.802 159.5C130.802 163.3 129.902 166.2 128.002 168.1C126.102 170 123.102 170.9 119.002 170.9H100.002C97.7016 170.9 95.8015 170.6 94.3015 170C92.8015 169.4 91.6016 168.6 90.6016 167.6C89.7016 166.6 89.1016 165.4 88.7016 164C88.3016 162.6 88.1016 161.1 88.1016 159.5V150.8H94.4016V159.5C94.4016 160.5 94.5015 161.2 94.6015 161.9C94.7015 162.6 95.1016 163 95.5016 163.3C95.9016 163.6 96.5016 163.9 97.2016 164C97.9016 164.1 98.8016 164.2 99.9016 164.2H118.902C120.002 164.2 121.002 164.1 121.702 164C122.402 163.9 123.002 163.6 123.402 163.2C123.802 162.8 124.102 162.3 124.302 161.7C124.502 161.1 124.502 160.3 124.502 159.3V150.9H130.702V159.5H130.802Z" fill="#179FDB"/>
<path d="M70.5008 123.5C74.3008 123.5 77.2008 122.6 79.1008 120.7C81.0008 118.8 81.9008 115.8 81.9008 111.7V92.7C81.9008 90.4 81.6008 88.5 81.0008 87C80.4008 85.5 79.6008 84.3 78.6008 83.3C77.6008 82.4 76.4008 81.8 75.0008 81.4C73.6008 81 72.1008 80.8 70.5008 80.8H61.8008V87.1H70.5008C71.5008 87.1 72.2008 87.2 72.9008 87.3C73.5008 87.5 74.0008 87.8 74.3008 88.2C74.6008 88.6 74.9008 89.2 75.0008 89.9C75.1008 90.6 75.2008 91.5 75.2008 92.6V111.6C75.2008 112.7 75.1008 113.7 75.0008 114.4C74.9008 115.1 74.6008 115.7 74.2008 116.1C73.8008 116.5 73.3008 116.8 72.7008 117C72.1008 117.2 71.3008 117.2 70.3008 117.2H61.9008V123.4H70.5008V123.5Z" fill="#179FDB"/>
<path d="M172.602 212.5C188.102 212.5 199.602 208.7 207.202 201.1C214.702 193.5 218.502 181.3 218.502 164.6V87.6C218.502 78.4 217.302 70.6 215.002 64.4C212.702 58.2 209.502 53.3 205.402 49.6C201.302 45.9 196.402 43.3 190.902 41.8C185.402 40.3 179.202 39.5 172.702 39.5H137.602V65H172.702C176.602 65 179.702 65.3 182.202 66C184.702 66.7 186.602 67.9 187.902 69.6C189.202 71.3 190.102 73.6 190.602 76.5C191.002 79.4 191.302 83.1 191.302 87.6V164.6C191.302 169.2 191.002 173 190.402 176C189.802 179 188.802 181.3 187.302 182.9C185.802 184.5 183.802 185.7 181.302 186.4C178.802 187.1 175.502 187.4 171.502 187.4H137.702V212.5H172.602Z" fill="#A60C2F"/>
<path d="M46.7008 212.5C31.2008 212.5 19.7008 208.7 12.1008 201.1C4.6008 193.5 0.800781 181.3 0.800781 164.6V87.6C0.800781 78.4 2.00078 70.6 4.30078 64.4C6.60078 58.2 9.80079 53.3 13.9008 49.6C18.0008 45.9 22.9008 43.3 28.4008 41.8C34.0008 40.2 40.1008 39.5 46.6008 39.5H81.7008V65H46.6008C42.7008 65 39.6008 65.3 37.1008 66C34.6008 66.7 32.7008 67.9 31.4008 69.6C30.1008 71.3 29.2008 73.6 28.7008 76.5C28.3008 79.4 28.0008 83.1 28.0008 87.6V164.6C28.0008 169.2 28.3008 173 28.9008 176C29.5008 179 30.5008 181.3 32.0008 182.9C33.5008 184.5 35.5008 185.7 38.0008 186.4C40.5008 187.1 43.8008 187.4 47.8008 187.4H81.6008V212.5H46.7008Z" fill="#A60C2F"/>
</svg>
