<svg width="429" height="159" viewBox="0 0 429 159" fill="none" xmlns="http://www.w3.org/2000/svg">
<path d="M372.393 66.6963C369.65 66.9779 366.925 67.3868 364.182 67.6685C364.155 68.1828 364.244 68.8188 364.217 69.3331C374.701 78.8744 385.086 88.4212 395.57 97.9625C395.525 98.3496 395.48 98.7368 395.336 99.1294C388.149 96.0701 380.943 92.8836 373.755 89.8243C373.71 90.2115 373.567 90.6041 373.522 90.9912C391.629 111.644 409.835 132.291 427.943 152.944C427.62 153.475 427.396 154 427.055 154.404C401.747 141.205 376.42 127.879 349.705 113.861C352.529 113.447 354.098 112.59 355.37 113.16C363.768 117.049 372.183 121.065 380.536 125.341C390.062 130.193 399.544 135.431 409.438 139.365C393.545 116.793 373.258 101.134 357.284 78.695C362.85 80.8194 368.514 82.9383 374.08 85.0628C374.143 84.8028 374.206 84.5429 374.17 84.2885C365.989 76.285 357.808 68.2814 349.547 60.4106C349.655 59.7636 349.78 59.2437 349.888 58.5967C357.336 61.385 364.864 64.0407 372.312 66.829L372.393 66.6963Z" fill="black"/>
<path d="M43.1809 95.9958C45.9312 96.1947 48.686 96.2653 51.4362 96.4642C51.5522 95.9624 51.5746 95.3206 51.6906 94.8188C43.0229 83.6019 34.4533 72.3968 25.7856 61.1799C25.8971 60.8065 26.0086 60.4331 26.2182 60.0713C32.7655 64.3323 39.3083 68.7216 45.8556 72.9826C45.9671 72.6091 46.1767 72.2474 46.2882 71.874C32.0421 48.3906 17.6979 24.8955 3.45179 1.41209C3.86198 0.945359 4.17408 0.466937 4.57978 0.128577C27.2117 17.5218 49.8391 35.0433 73.7145 53.4871C70.8617 53.4048 69.1677 53.9763 68.0134 53.1942C60.4188 47.906 52.8287 42.4895 45.3456 36.828C36.8063 30.396 28.3784 23.5905 19.3173 17.9987C31.0491 42.987 48.3094 61.9313 60.1437 86.803C55.0315 83.7444 49.8212 80.674 44.7091 77.6154C44.602 77.8605 44.495 78.1055 44.486 78.3623C51.1527 87.6648 57.8193 96.9673 64.5885 106.153C64.37 106.772 64.1559 107.262 63.9373 107.88C57.0869 103.841 50.1339 99.9184 43.2835 95.8791L43.1809 95.9958Z" fill="black"/>
</svg>
