<svg width="300" height="71" viewBox="0 0 300 71" fill="none" xmlns="http://www.w3.org/2000/svg">
<path d="M15.1685 26.5765C15.1685 12.0298 26.9609 0.237427 41.5076 0.237427H258.492C273.039 0.237427 284.831 12.0298 284.831 26.5765V55.3063C284.831 63.6837 291.623 70.4749 300 70.4749H0C8.37735 70.4749 15.1685 63.6837 15.1685 55.3063V26.5765Z" fill="#A60C2F" fill-opacity="0.3"/>
<path d="M24.0879 30.8092C24.0879 17.7938 34.639 7.24268 47.6544 7.24268H250.974C263.989 7.24268 274.54 17.7938 274.54 30.8092V55.9988C274.54 63.7793 280.847 70.0867 288.628 70.0867H10C17.7805 70.0867 24.0879 63.7793 24.0879 55.9988V30.8092Z" fill="#A60C2F" fill-opacity="0.8"/>
</svg>
